<?xml version="1.0" standalone="no"?>
<!DOCTYPE svg PUBLIC "-//W3C//DTD SVG 20010904//EN"
 "http://www.w3.org/TR/2001/REC-SVG-20010904/DTD/svg10.dtd">
<svg version="1.0" xmlns="http://www.w3.org/2000/svg"
 width="1280.000000pt" height="1280.000000pt" viewBox="0 0 1280.000000 1280.000000"
 preserveAspectRatio="xMidYMid meet">
<metadata>
Created by potrace 1.14, written by Peter Selinger 2001-2017
</metadata>
<g transform="translate(0.000000,1280.000000) scale(0.100000,-0.100000)"
fill="#000000" stroke="none">
<path d="M6150 12793 c-21 -4 -145 -29 -175 -37 -17 -4 -118 -37 -150 -49 -16
-7 -84 -39 -150 -73 -369 -187 -754 -537 -1110 -1009 -54 -71 -112 -146 -129
-165 -17 -20 -51 -60 -76 -90 -25 -29 -85 -101 -135 -160 -49 -59 -106 -126
-125 -150 -19 -24 -40 -48 -45 -54 -6 -6 -35 -40 -64 -76 -30 -36 -57 -67 -60
-70 -3 -3 -32 -36 -63 -75 -31 -38 -65 -79 -75 -90 -10 -11 -67 -78 -127 -150
-59 -71 -125 -150 -146 -175 -21 -25 -80 -94 -130 -155 -160 -190 -175 -208
-190 -225 -8 -8 -27 -31 -41 -50 -15 -19 -35 -44 -46 -55 -10 -11 -74 -87
-143 -170 -69 -82 -135 -161 -147 -175 -45 -53 -209 -249 -238 -284 -16 -20
-43 -51 -58 -69 -16 -18 -54 -63 -85 -102 -31 -38 -62 -74 -68 -80 -5 -5 -33
-37 -61 -70 -28 -33 -145 -155 -259 -270 -208 -210 -303 -309 -464 -485 -92
-100 -89 -97 -170 -190 -30 -35 -64 -74 -75 -86 -11 -12 -29 -33 -40 -45 -18
-21 -287 -349 -319 -390 -157 -196 -486 -669 -599 -862 -95 -162 -234 -429
-288 -552 -56 -128 -59 -179 -19 -291 82 -234 340 -405 770 -509 137 -33 143
-34 360 -64 239 -32 375 -40 670 -40 227 1 252 0 259 -6 2 -3 6 -49 7 -103 1
-53 5 -207 8 -342 4 -135 9 -317 11 -405 2 -88 7 -254 10 -370 6 -225 12 -442
20 -755 3 -107 8 -276 10 -375 21 -767 27 -1017 29 -1147 0 -71 4 -128 7 -128
4 0 3 -16 -1 -34 -4 -19 -5 -37 -2 -40 2 -3 6 -43 7 -88 2 -91 2 -91 89 -222
230 -352 518 -562 840 -614 53 -9 277 -7 336 2 413 64 876 341 1330 796 141
141 208 213 223 236 4 7 -46 -11 -111 -38 -162 -69 -166 -71 -177 -74 -9 -2
-232 -98 -300 -128 -16 -8 -55 -24 -85 -36 -30 -12 -79 -33 -108 -46 -29 -13
-55 -24 -58 -24 -3 0 -24 -9 -47 -19 -164 -74 -511 -215 -579 -235 -343 -102
-584 -15 -737 266 -69 125 -125 322 -147 508 -2 19 -7 62 -11 95 -9 81 -9 529
0 635 7 79 15 147 22 195 3 25 23 131 45 240 12 60 18 99 26 145 3 19 7 43 10
52 6 20 11 44 18 94 7 41 16 96 23 129 4 22 6 34 33 210 24 151 31 202 36 240
2 17 5 39 7 50 3 11 8 49 12 85 4 36 9 72 10 80 2 8 6 40 9 70 4 30 8 69 10
85 3 17 7 64 11 105 3 41 8 89 10 105 7 48 16 145 20 205 15 273 18 356 18
495 -1 88 -4 189 -7 225 -3 36 -8 90 -11 120 -12 135 -40 262 -70 320 -16 29
-72 88 -105 110 -12 8 -28 20 -34 26 -22 21 -188 86 -278 109 -118 29 -149 34
-378 62 -86 10 -665 10 -803 0 -121 -9 -192 -16 -224 -22 -29 -5 -29 4 0 35
12 14 78 88 146 165 162 184 187 211 235 265 23 25 67 75 100 112 32 37 70 80
85 96 14 15 39 44 56 63 16 19 70 79 119 134 48 55 116 131 150 169 33 38 72
81 85 95 33 37 143 160 164 185 10 12 46 52 80 90 34 38 76 85 92 104 17 19
41 47 55 62 14 15 50 56 81 91 31 35 67 76 80 90 21 23 119 134 159 179 14 16
39 44 195 219 27 31 59 67 70 80 11 12 34 38 50 56 32 35 56 62 149 168 67 76
69 79 232 253 67 71 136 145 154 164 30 33 207 220 329 348 29 31 101 108 160
170 58 63 133 142 166 177 55 57 264 278 344 364 18 20 95 101 171 181 75 80
166 176 201 214 35 38 91 97 124 131 33 35 107 114 165 175 58 62 125 133 150
159 54 57 304 322 350 371 18 19 86 91 150 160 65 69 147 156 183 194 l65 69
30 -19 c42 -24 406 -397 545 -558 10 -12 33 -37 50 -56 18 -19 68 -75 112
-125 44 -49 87 -96 95 -105 8 -9 35 -40 60 -69 25 -29 56 -64 70 -80 24 -25
100 -111 200 -226 40 -46 75 -86 190 -219 19 -22 42 -47 50 -56 8 -9 40 -45
70 -80 30 -36 72 -85 95 -110 51 -58 86 -99 155 -180 30 -36 64 -74 75 -86 11
-12 29 -32 40 -45 17 -20 145 -169 222 -259 12 -14 108 -126 214 -250 106
-124 215 -252 243 -284 28 -32 57 -67 64 -78 8 -11 31 -37 52 -58 21 -21 44
-47 52 -58 7 -10 34 -43 59 -73 84 -98 183 -214 229 -268 25 -30 50 -59 55
-65 6 -6 35 -41 65 -76 30 -36 57 -67 60 -70 6 -6 96 -114 120 -144 8 -10 22
-26 31 -35 8 -9 62 -72 120 -141 57 -69 106 -127 109 -130 3 -3 28 -32 55 -65
28 -33 52 -62 55 -65 3 -3 27 -32 55 -65 27 -33 52 -62 55 -65 3 -3 43 -50 88
-105 46 -55 95 -113 110 -130 16 -16 62 -70 103 -120 40 -49 79 -95 84 -101
12 -14 100 -118 369 -438 22 -27 69 -83 104 -124 35 -41 59 -78 54 -81 -6 -3
-34 -5 -64 -4 -145 4 -946 16 -1038 16 -90 -1 -113 -5 -162 -26 -145 -64 -248
-229 -297 -473 -34 -172 -36 -223 -27 -644 7 -270 15 -674 22 -980 2 -129 6
-327 9 -440 2 -113 7 -320 10 -460 3 -140 7 -356 10 -480 3 -124 7 -333 10
-465 3 -132 8 -352 11 -490 9 -355 8 -362 -18 -401 -12 -18 -29 -35 -38 -39
-8 -3 -27 -12 -41 -20 -38 -21 -93 -29 -189 -28 -172 3 -383 58 -720 186 -233
88 -867 395 -1088 526 -29 17 -55 31 -57 31 -2 0 -42 23 -90 50 -48 28 -91 50
-96 50 -18 0 -205 97 -279 144 -190 123 -425 339 -599 552 -172 211 -386 537
-543 829 -51 96 -218 432 -218 440 0 2 -16 37 -35 76 -19 40 -35 75 -35 79 0
4 -10 29 -22 56 -12 27 -23 51 -23 54 -1 3 -9 23 -19 45 -10 22 -24 58 -32 80
-8 22 -18 49 -23 60 -120 280 -269 722 -306 908 -13 67 -16 84 -25 117 -4 19
-12 58 -16 85 -4 28 -9 57 -10 65 -2 8 -6 42 -9 75 -3 33 -8 67 -10 75 -12 47
-20 216 -19 440 1 283 5 346 40 575 9 58 46 241 59 290 8 28 21 77 30 110 17
65 50 168 64 200 5 11 23 56 40 100 46 117 41 114 99 71 161 -118 329 -399
477 -801 40 -108 41 -110 80 -235 52 -168 107 -363 120 -430 2 -8 8 -33 13
-55 6 -22 13 -51 16 -65 3 -14 7 -34 9 -45 8 -36 80 -149 125 -197 97 -104
192 -121 322 -60 52 25 178 156 237 247 284 435 511 717 767 950 25 24 152
115 176 127 14 7 27 15 30 19 7 7 108 50 131 55 11 2 29 6 42 9 152 34 301
-51 356 -203 23 -62 38 -123 63 -257 14 -71 17 -470 4 -570 -4 -38 -9 -81 -11
-95 -5 -57 -17 -119 -60 -333 -2 -10 -6 -26 -9 -35 -3 -9 -8 -32 -11 -51 -3
-19 -8 -38 -11 -43 -3 -4 -7 -17 -9 -27 -18 -96 -139 -463 -220 -671 -54 -140
-62 -158 -104 -252 -11 -26 -21 -50 -21 -52 0 -4 -19 -48 -82 -186 -41 -89
-239 -487 -289 -580 -67 -127 -108 -202 -119 -220 -5 -8 -32 -55 -60 -105 -28
-49 -55 -97 -60 -105 -48 -79 -90 -154 -90 -161 0 -5 -4 -9 -8 -9 -4 0 -18
-19 -30 -42 -12 -24 -48 -83 -80 -133 -32 -49 -67 -103 -77 -120 -20 -32 9 -6
231 202 23 21 87 81 144 133 57 52 120 111 140 130 21 19 84 78 141 130 56 52
117 109 134 125 18 17 56 53 86 80 56 51 140 159 239 304 30 45 61 88 68 96 6
7 12 18 12 24 0 6 5 11 10 11 6 0 10 4 10 10 0 5 25 48 55 95 30 46 55 87 55
89 0 2 21 40 47 83 51 86 183 349 231 458 96 221 167 433 221 654 25 102 39
175 76 398 20 122 28 545 12 693 -10 96 -27 206 -43 280 -3 14 -7 36 -9 50 -2
14 -8 37 -14 53 -6 15 -8 27 -6 27 2 0 0 11 -5 25 -5 14 -12 36 -14 48 -7 38
-56 179 -88 257 -140 333 -380 513 -673 504 -94 -3 -112 -5 -208 -29 -206 -52
-504 -222 -750 -428 -95 -80 -162 -142 -291 -269 -82 -81 -150 -147 -151 -145
0 1 -29 74 -64 162 -35 88 -72 180 -83 205 -11 25 -29 65 -40 90 -383 860
-830 1266 -1277 1160 -116 -28 -219 -80 -335 -169 -40 -31 -193 -186 -232
-236 -21 -27 -41 -52 -44 -55 -33 -29 -189 -310 -173 -310 3 0 0 -6 -6 -13 -6
-8 -17 -31 -25 -53 -8 -21 -29 -73 -46 -114 -18 -41 -42 -104 -55 -140 -13
-36 -35 -99 -50 -140 -14 -41 -28 -84 -29 -95 -2 -11 -8 -31 -14 -45 -9 -22
-45 -141 -44 -147 1 -2 -4 -17 -9 -35 -13 -41 -67 -268 -74 -311 -3 -17 -13
-70 -22 -117 -8 -47 -17 -96 -18 -110 -3 -27 -14 -121 -20 -160 -31 -226 -36
-663 -10 -880 2 -14 6 -56 10 -95 4 -38 10 -79 12 -90 3 -11 6 -33 8 -50 23
-194 106 -499 202 -740 22 -55 64 -173 93 -263 192 -596 552 -1228 1074 -1887
61 -77 113 -142 116 -145 3 -3 41 -48 85 -100 44 -52 87 -101 95 -110 8 -9 49
-54 90 -100 184 -205 481 -505 653 -662 50 -46 102 -94 117 -108 14 -14 55
-50 90 -80 36 -30 74 -64 85 -75 12 -11 38 -33 59 -50 21 -16 53 -43 70 -58
17 -15 45 -35 61 -44 17 -9 49 -30 72 -47 22 -17 54 -38 70 -47 15 -9 73 -44
128 -78 116 -72 102 -64 228 -135 54 -31 102 -56 107 -56 6 0 10 -5 10 -10 0
-6 3 -9 8 -8 4 0 81 -35 172 -80 195 -95 501 -220 584 -237 11 -3 40 -11 65
-19 53 -17 169 -48 191 -51 8 -1 24 -4 35 -8 11 -3 32 -8 48 -11 15 -3 53 -10
85 -15 31 -6 78 -13 103 -16 26 -3 58 -8 70 -11 13 -3 119 -7 234 -9 199 -2
297 6 481 39 184 34 457 147 634 264 143 94 216 157 365 316 29 30 95 124 95
134 0 7 4 12 8 12 12 0 77 142 113 247 52 148 106 382 134 578 3 22 8 51 10
65 3 14 7 50 10 80 3 30 8 71 10 90 16 134 27 261 40 475 25 419 21 1188 -9
1715 -4 63 -9 149 -11 190 -6 123 -16 272 -20 320 -2 25 -6 83 -10 130 -3 47
-8 102 -11 122 -3 20 -1 39 4 42 9 5 73 12 185 21 37 3 97 7 135 10 141 11
306 29 372 40 14 3 45 8 70 11 25 3 77 13 115 21 39 8 81 17 95 19 14 3 43 10
65 16 22 5 49 12 61 14 70 13 273 84 372 129 29 14 55 25 58 25 3 0 19 9 35
21 16 11 29 18 29 15 0 -11 74 39 180 122 119 94 193 187 240 305 56 139 49
225 -31 442 -150 402 -520 964 -1093 1660 -50 61 -95 115 -101 121 -5 6 -30
35 -55 65 -53 64 -257 297 -279 320 -9 9 -43 46 -76 83 -104 118 -274 302
-373 404 l-63 65 6 131 c15 328 16 402 16 741 1 425 -10 689 -36 920 -2 22 -7
65 -10 95 -19 173 -64 409 -95 485 -6 17 -10 30 -9 30 3 0 -10 46 -20 70 -56
136 -110 213 -169 245 -21 10 -50 31 -67 45 -16 15 -52 46 -79 69 -27 22 -54
46 -60 51 -7 6 -19 15 -27 20 -9 6 -58 39 -110 73 -52 35 -139 86 -194 113
-91 44 -272 111 -335 123 -14 2 -47 9 -75 14 -408 79 -874 -39 -1263 -321 -51
-37 -95 -67 -99 -67 -7 0 -48 36 -172 149 -132 120 -133 121 -190 171 -29 25
-71 63 -95 85 -47 44 -188 172 -226 205 -59 51 -182 165 -258 240 -184 180
-378 290 -597 341 -49 11 -286 19 -335 12z"/>
</g>
</svg>
